# xmcd
#
# Track frame offsets: 
#        150
#        13888
#        27530
#        39760
#        53810
#        66583
#        78013
#        91020
#        104130
#        118675
#        132413
#        144893
#        158023
#        170160
#
# Disc length: 2414 seconds
#
# Revision: 0
# Processed by: cddbd v1.5.2PL0 Copyright (c) Steve Scherf et al.
# Submitted via: ExactAudioCopy v0.99pb4
#
DISCID=ba096c0e
DTITLE=Lucille Bogan and Walter Roland - 1927-1935
DYEAR=1900
DGENRE=Blues
TTITLE0=Baking Powder Blues
TTITLE1=Jookit Jookit
TTITLE2=Barbecue Bess
TTITLE3=T Model Blues
TTITLE4=Jump Steady Daddy
TTITLE5=Big Mama
TTITLE6=Early This Morning #2
TTITLE7=Guitar Stomp
TTITLE8=They Ain't Walkin' No More
TTITLE9=Penniless Blues
TTITLE10=Jim Tampa Blues
TTITLE11=Railroad Stomp
TTITLE12=Sweet Patunia
TTITLE13=Levee Blues
EXTD=
EXTT0=
EXTT1=
EXTT2=
EXTT3=
EXTT4=
EXTT5=
EXTT6=
EXTT7=
EXTT8=
EXTT9=
EXTT10=
EXTT11=
EXTT12=
EXTT13=
PLAYORDER=
